<?xml version="1.0" encoding="UTF-8"?>
<svg xmlns="http://www.w3.org/2000/svg" version="1.1" viewBox="0 0 821.2 687.8">
  <defs>
    <style>
      .cls-1 {
        fill: #2f2e41;
      }

      .cls-2 {
        fill: #9e616a;
      }

      .cls-3 {
        fill: #3f3d56;
      }

      .cls-4 {
        fill: #b8336a;
      }

      .cls-5 {
        fill: #5fcae6;
      }

      .cls-6 {
        fill: #1b1464;
      }

      .cls-7 {
        fill: #a0616a;
      }

      .cls-8 {
        fill: #2d293d;
      }

      .cls-9 {
        fill: #e6e6e6;
      }
    </style>
  </defs>
  <!-- Generator: Adobe Illustrator 28.6.0, SVG Export Plug-In . SVG Version: 1.2.0 Build 709)  -->
  <g>
    <g id="Layer_1">
      <polygon class="cls-2" points="756 674.6 743.7 674.6 737.9 627.3 756 627.3 756 674.6"/>
      <path class="cls-1" d="M759.1,686.4h-39.5v-.5c0-8.5,6.9-15.4,15.4-15.4h24.1s0,15.9,0,15.9Z"/>
      <polygon class="cls-2" points="709 674.6 696.7 674.6 690.9 627.3 709 627.3 709 674.6"/>
      <path class="cls-1" d="M712.1,686.4h-39.5v-.5c0-8.5,6.9-15.4,15.4-15.4h24.1s0,15.9,0,15.9Z"/>
      <path id="ae5c11dc-7e77-468a-a39f-cc8da6ee1565-952" class="cls-6" d="M179.3,684.6v-379.8c0-4.9,3.9-8.8,8.8-8.8h39.4c4.9,0,8.8,3.9,8.8,8.8h0v380.8l-57-1Z"/>
      <path id="bc696f83-47b6-45c9-967f-bb64f1f3bee5-953" class="cls-6" d="M309.3,685.8v-302c0-4.9,3.9-8.8,8.8-8.8h39.4c4.9,0,8.8,3.9,8.8,8.8h0v301.3l-57,.7Z"/>
      <path class="cls-3" d="M78.3,327c-1.7,0-3-1.3-3-3,0-.7.3-1.5.8-2l131.6-146.8,129.5,72.7L467.5,23.4l132.7,109.2c1.3,1.1,1.5,2.9.4,4.2s-2.9,1.5-4.2.4c0,0,0,0,0,0l-127.3-104.8-129.7,223.5-130.5-73.3-128.4,143.2c-.6.6-1.4,1-2.2,1Z"/>
      <circle id="a1f8771a-4bf9-4603-9747-6ae739e4ad47" class="cls-4" cx="77.8" cy="324" r="28"/>
      <circle id="ffdbdf53-78c2-412f-9ede-372406e5d245" class="cls-6" cx="207.8" cy="179" r="28"/>
      <circle id="b7cff929-f00d-4f86-944c-e500b6ceb6ad" class="cls-6" cx="337.8" cy="252" r="28"/>
      <circle id="eabc0b76-6faa-4fa0-934c-daff28b491dd" class="cls-4" cx="467.8" cy="28" r="28"/>
      <circle id="a7ca0488-8ee6-49e2-b245-2872b84c042e" class="cls-4" cx="717.8" cy="236.5" r="28"/>
      <path id="b579ef19-595a-43de-9b6d-0ead8268ca48-954" class="cls-3" d="M707.9,454.7c10.5,1.3,37.3-8.3,38.7,6.2,13.8,40.6,13.4,196.3,13.4,196.3l-21,1s-16.8-123.7-24.7-150.1c-4,32.2-3.3,155.1-3.3,155.1l-19,1s-17-104.7-17.1-135.5c-2.1-22.5,3-55.9.8-77.6,10.4,3.3,21.3,4.5,32.2,3.6h0Z"/>
      <path id="b3465432-03e0-48eb-8016-b04aa244e72c-955" class="cls-6" d="M569.3,684.5V246.7c0-5.6,3.9-10.2,8.8-10.2h39.4c4.9,0,8.8,4.6,8.8,10.2v438.9l-57-1.1Z"/>
      <path id="ac7870c5-efcc-4c4b-b17f-07e0bff4d096-956" class="cls-2" d="M672.3,336.9c-4.2-8.6-9.3-16.7-15.3-24.2-1.2-1.5-2.4-3-3.4-4.6-2.2-3.7-2.8-8.1-4.2-12.2-3.8-11.4-13.3-20.6-15.6-32.5-.8-4.3-7.9,8.2-6.1,13.5,3.3,9.6,3.8,19.9,8,29.2s9.2,18.3,12.9,27.8c2.1,5.4,3.7,11,6.8,16s7.8,9.2,13.6,9.9c0-3.6.5-7.2,1.6-10.7,1.2-3.9,3.5-8.6,1.7-12.3Z"/>
      <path id="be4b35b3-6955-40b7-9549-45fdba6a2930-957" class="cls-2" d="M735.2,343.3c-.3-7.1.8-14.1,3.2-20.8.9-2.5,2-5.1,1.9-7.9-.1-2.5-1.3-4.8-2.4-7.1-3.8-7.9-6.4-16.2-9-24.5l-5-15.6c-1.6-1.2,7.9-1.6,9.9,1.2,6.6,9.2,11.7,19.8,16.9,29.9,1.3,2.4,2.5,4.9,3.4,7.5,1.3,4.2,1.9,8.6,1.8,12.9,0,8.2-1.1,16.4-2.2,24.5-.7,5.1-1.6,10.6-5.5,14-4-5.1-8-10.1-13.1-14.1Z"/>
      <circle id="a7d383a2-21d6-4551-be8a-8c82a5e576cb" class="cls-2" cx="708.8" cy="314.5" r="20.8"/>
      <path id="fb091cb1-8ad4-4d57-b74d-c940c723d6bf-958" class="cls-8" d="M691.9,293.8c-.5-1.3-.2-2.7.8-3.7.5-.4,1.2-.6,1.8-1,.8-.7,1.4-1.5,1.9-2.4,2.9-4.1,8.4-5.5,12.9-3.3,3.4,1.8,5.5,5.4,8.5,7.8,1.5,1.3,3.3,2.2,4.9,3.4,3.1,2.7,5.3,6.3,6.4,10.3,1,4,1.6,8,1.8,12.1.2,1.2.1,2.5-.1,3.7-.3,1-.8,2-1.4,2.8-3.1,4.7-7.3,9.1-12.4,11.5s-11.5,2.8-16.6.3c-.5-.2-1-.6-1.3-1-.3-.7-.4-1.5-.2-2.2.3-2.9-.3-5.8-1.7-8.4-1-1.9-2.4-3.5-3.1-5.5-.7-2.2-1-4.5-.9-6.8,0-6,.3-11.9-1.2-17.7Z"/>
      <path id="ef6ae9ea-be37-4bc6-b1be-067860dc7e9d-959" class="cls-6" d="M49.3,685v-211.3c0-2.7,3.9-4.9,8.8-4.9h39.4c4.9,0,8.8,2.2,8.8,4.9v211.9l-57-.6Z"/>
      <path id="b4c810f7-8361-4f56-9780-d97c96bbbba4-960" class="cls-9" d="M820.2,687.8H1C.4,687.8,0,687.4,0,686.8s.4-1,1-1h819.2c.6,0,1,.4,1,1s-.4,1-1,1h0Z"/>
      <path id="b32730d1-ac43-40b1-a176-73e18bf362e5-961" class="cls-4" d="M439.3,684.3V187.5c0-6.4,3.9-11.5,8.8-11.5h39.4c4.9,0,8.8,5.2,8.8,11.5v498.1l-57-1.3Z"/>
      <circle class="cls-7" cx="627.2" cy="265.4" r="9"/>
      <circle class="cls-7" cx="727.2" cy="261.4" r="9"/>
      <path class="cls-5" d="M749.1,372.8c.9-.8,8-42.7,8-43.6-.1-5.2-15.8-11-19-9-3,1.9-8.1,24.1-11.5,28.2l-3.5-6.2h-28l-1.7,3.2c-3.7-2.2-7-4.3-8.2-4.9-.4-.3-.8-.5-1.3-.6-2.9-.7-5.6-1.9-8-3.8-2.3-1.8-13-20.3-15.8-19.8-3.2.5-14.1,10-14,19,1.4,0,19.2,35.6,19.5,37,1.4,5.6,5.9,87.6,7.4,91.4,6.7-.7,1.4-1.8,7.9,0,7,2,14.4-.2,21.6-.9,3-.3,6-.4,9.1-.4,11,0,26.7.7,37.3,3.4,0-7-6.1-22.1-8.3-28.7-.3-2-.3-4,0-5.9.3-2.4,6.1-55.5,8.5-58.2Z"/>
    </g>
  </g>
</svg>